<?xml version="1.0" standalone="no"?>
<!DOCTYPE svg PUBLIC "-//W3C//DTD SVG 20010904//EN"
 "http://www.w3.org/TR/2001/REC-SVG-20010904/DTD/svg10.dtd">
<svg version="1.0" xmlns="http://www.w3.org/2000/svg"
 width="1280.000000pt" height="1186.000000pt" viewBox="0 0 1280.000000 1186.000000"
 preserveAspectRatio="xMidYMid meet">
<g transform="translate(0.000000,1186.000000) scale(0.100000,-0.100000)"
fill="#000000" stroke="none">
<path d="M1350 11848 c-254 -43 -356 -72 -506 -144 -260 -124 -505 -353 -647
-607 -89 -160 -140 -313 -177 -535 -20 -123 -20 -138 -20 -4633 l0 -4510 25
-143 c61 -354 182 -595 419 -832 222 -221 486 -360 776 -409 52 -9 119 -20
149 -25 74 -13 9058 -13 9132 0 185 32 244 45 329 72 217 70 399 179 570 344
210 204 345 439 418 733 l27 106 2 2823 c2 1649 0 2822 -6 2820 -4 -1 -333
-288 -730 -637 l-721 -634 0 -2071 c0 -1598 -3 -2075 -12 -2084 -17 -17 -8879
-17 -8896 0 -17 17 -17 8879 0 8896 18 18 8881 17 8896 -1 6 -7 13 -61 14
-120 l3 -107 595 521 c327 287 596 527 598 534 5 19 -105 151 -206 247 -152
144 -344 260 -534 322 -75 24 -204 53 -339 75 -85 14 -9076 13 -9159 -1z"/>
<path d="M8696 7745 c-1511 -1328 -2752 -2415 -2757 -2415 -11 0 84 -107 -989
1112 -509 579 -930 1053 -935 1055 -13 4 -1490 -1291 -1490 -1306 0 -6 187
-223 416 -483 228 -260 943 -1074 1588 -1808 645 -734 1190 -1353 1211 -1374
l38 -39 239 210 c720 633 4003 3516 5281 4638 815 715 1480 1305 1479 1312 -2
13 -1318 1513 -1327 1513 -3 0 -1242 -1087 -2754 -2415z"/>
</g>
</svg>
